<?xml version="1.0" encoding="utf-8"?>
<!-- Generator: Adobe Illustrator 22.0.0, SVG Export Plug-In . SVG Version: 6.00 Build 0)  -->
<svg version="1.1" id="Layer_1" xmlns="http://www.w3.org/2000/svg" xmlns:xlink="http://www.w3.org/1999/xlink" x="0px" y="0px"
	 viewBox="0 0 32 32" style="enable-background:new 0 0 32 32;" xml:space="preserve">
<style type="text/css">
	.st0{fill:none;stroke:#222;stroke-width:9;stroke-linejoin:round;stroke-miterlimit:10;}
	.st1{fill:none;stroke:#222;stroke-width:1.5379;stroke-linejoin:round;stroke-miterlimit:10;}
</style>
<g>
	<g>
		<path fill="#222" d="M-18.9-594.3c4.4,0,8.5,0,12.8,0c0,0.7,0,1.4,0,2c0,16.1,0,32.3,0,48.4c0,2.8,1.1,4.7,3.2,6.3c2.5,1.9,5.3,2.9,8.4,2.9
			c34.8,0,69.6,0,104.4,0c0.8,0,1.7-0.1,2.5-0.4c3.6-1.2,9.5-7.8,9.4-13.3c-0.1-39.6-0.1-79.2-0.1-118.7c0-2.4-0.6-4.6-2.3-6.3
			c-1.8-1.8-3.8-3.6-5.9-4.9c-1.4-0.9-3.3-1.3-4.9-1.3c-34.3-0.1-68.6-0.1-102.9,0c-1.6,0-3.5,0.6-4.8,1.5
			c-4.4,3.3-7.5,7.3-7.1,13.3c0.2,2,0,4.1,0,6.3c-4.3,0-8.5,0-12.9,0c0-0.6,0-1.1,0-1.6c0-7.3,0-14.6,0-21.9
			c0-6.6,3.9-10.5,10.4-10.5c44.3,0,88.6,0,132.9,0c6.5,0,10.3,3.9,10.3,10.4c0,50,0,99.9,0,149.9c0,6.4-4,10.4-10.4,10.4
			c-44.3,0-88.6,0-132.9,0c-6.3,0-10.4-4-10.4-10.2c0-20.2,0-40.5,0-60.7C-19-593.2-18.9-593.7-18.9-594.3z"/>
		<path fill="#222" d="M68.2-619.9c-0.6,0-1.3,0-1.9,0c-26.4,0-52.8,0-79.2,0c-4.7,0-5.9-1.3-6-5.9c-0.2-4.5,0.7-7,6.8-6.9
			c25.3,0.2,50.7,0.1,76,0.1c0.6,0,1.2,0,2.3,0c-2.6-2.1-4.8-3.8-7-5.6c-4.1-3.2-8.2-6.5-12.2-9.7c-3-2.4-3.2-4.4-0.8-7.4
			c0.6-0.7,1.1-1.4,1.7-2.1c2-2.5,4.3-2.8,6.8-0.8c5.5,4.4,11.1,8.8,16.6,13.2c6.3,5,12.6,10.1,18.9,15.1c3.1,2.4,3.3,5.2,0.3,7.7
			c-8.8,7.7-17.6,15.3-26.4,22.9c-2.9,2.5-5.8,5-8.7,7.4c-2.5,2.1-4.8,1.9-6.7-0.7c-0.7-0.9-1.4-1.8-2-2.7c-1.7-2.3-1.4-4.7,0.8-6.5
			c6.3-5.3,12.6-10.6,18.9-15.9c0.7-0.6,1.3-1.1,2-1.7C68.3-619.7,68.2-619.8,68.2-619.9z"/>
		<path fill="#222" d="M58-547.3c-16,0-31.9,0-47.9,0c-2.8,0-3.4-0.6-3.4-3.5c0-5.2,0-5.2,5.2-5.2c31.2,0,62.4,0,93.6,0c3.1,0,3.6,0.5,3.6,3.6
			c0,5,0,5-5,5C88.7-547.3,73.3-547.3,58-547.3z"/>
		<path fill="#222" d="M58-568.7c-15.9,0-31.8,0-47.8,0c-3.1,0-3.6-0.5-3.6-3.6c0-4.9,0-4.9,5-4.9c31.3,0,62.7,0,94,0c3,0,3.5,0.5,3.5,3.5
			c0,5,0,5-5,5C88.7-568.7,73.3-568.7,58-568.7z"/>
	</g>
</g>
<g>
	<g>
		<path fill="#222" d="M360.5-689.4c0,23.2,0,46.5,0,69.7c-1.3,2.7-3.4,3.7-6.4,3.6c-8.1-0.1-16.3,0-24.4,0c-0.6,0-1.1,0-1.8,0c0,1,0,1.7,0,2.4
			c0,26,0,52,0,78c0,5.6-2.7,8.4-8.2,8.4c-39.3,0-78.5,0-117.8,0c-5.6,0-8.3-3.8-8.2-8.2c0.1-39.3,0.1-78.5,0.1-117.8
			c0-0.4,0-0.9,0-1.3c0.1-3.1,2.1-5.8,5.1-6.6c1.1-0.3,2.4-0.3,3.5-0.3c26.4,0,52.8,0,79.2,0c1.6,0,2.1-0.4,2.1-2.1
			c-0.1-8-0.1-16,0-23.9c0-2.8,1.1-4.6,3.2-5.3c0.9-0.3,1.9-0.3,2.9-0.3c21.6,0,43.1,0,64.7,0C357.3-693.2,359.4-692.2,360.5-689.4z
			 M207.9-647.3c0,35.3,0,70.5,0,105.7c35.3,0,70.5,0,105.7,0c0-24.9,0-49.6,0-74.5c-5.5,0-10.9,0-16.4,0c-0.8,0-1.8,0.4-2.4,1
			c-10,9.9-19.9,19.9-29.9,29.8c-0.4,0.4-0.7,0.8-1.1,1.2c2.4,2.3,4.6,4.5,6.9,6.8c2.6,2.6,1.9,5.1-1.6,6.1
			c-12.1,3.2-24.2,6.5-36.2,9.7c-3.5,0.9-5.3-0.9-4.3-4.4c1.9-7.2,3.8-14.3,5.7-21.5c1.4-5.1,2.7-10.1,4.1-15.2
			c0.8-3,3.3-3.6,5.5-1.5c0.5,0.5,1,1,1.5,1.5c1.9,1.9,3.7,3.7,5.6,5.6c0.3-0.3,0.5-0.4,0.7-0.6c10.4-10.4,20.7-20.7,31.1-31.1
			c0.5-0.5,0.8-1.3,0.8-2c0.1-2.8,0-5.6,0-8.5c0-2.7,0-5.4,0-8.2C258.2-647.3,233.1-647.3,207.9-647.3z M346.4-678.9
			c-16.3,0-32.5,0-48.7,0c0,16.3,0,32.4,0,48.6c16.3,0,32.5,0,48.7,0C346.4-646.5,346.4-662.6,346.4-678.9z"/>
	</g>
</g>
<g>
	<g>
		<path fill="#222" d="M563.4-591c0,14.7,0,29.4,0,44.1c0,12.3-9,21.3-21.3,21.3c-28.1,0-56.2,0-84.3,0c-9.9,0-18.2-6.7-20.3-16.3
			c-0.3-1.4-0.5-2.9-0.5-4.4c0-12.8,0-25.6,0-38.3c0-4.6,3.1-7.9,7.5-7.9c4.3,0,7.4,3.3,7.4,7.8c0,12.6,0,25.3,0,37.9
			c0,4.2,2.2,6.4,6.4,6.4c27.9,0,55.8,0,83.7,0c4.4,0,6.5-2.1,6.5-6.4c0-28.6,0-57.2,0-85.8c0-1-0.3-1.7-1-2.3
			c-12.8-12.7-25.6-25.5-38.5-38.2c-0.5-0.5-1.5-0.9-2.3-0.9c-16.2-0.1-32.5,0-48.7,0c-3.9,0-6.1,2.3-6.1,6.2c0,12.8,0,25.7,0,38.5
			c0,3.5-2.4,6.5-5.7,7.2c-3.3,0.8-6.8-0.8-8.3-4c-0.5-1-0.8-2.3-0.8-3.4c-0.1-13-0.1-26.1,0-39.1c0.1-11.1,9.3-20.3,20.5-20.3
			c17.8,0,35.6,0,53.4,0c2.2,0,4.1,0.7,5.6,2.2c14.9,14.8,29.9,29.7,44.8,44.5c1.6,1.5,2.1,3.5,2.1,5.7
			C563.4-621.4,563.4-606.2,563.4-591C563.4-591,563.4-591,563.4-591z"/>
		<path fill="#222" d="M496.8-606.6c-0.2,5.3-2.1,10.6-6.4,14.9c-5.5,5.5-11,11-16.5,16.5c-3.1,3.1-7.7,3.1-10.7,0.2c-3-3-2.9-7.6,0.2-10.8
			c5.4-5.4,10.7-10.8,16.1-16.2c3.2-3.2,3.3-7.5,0-10.8c-5.4-5.5-10.9-10.9-16.4-16.4c-2.2-2.2-2.8-5.4-1.5-8.2c1.2-2.7,4-4.5,7-4.4
			c2.1,0.1,3.8,0.9,5.3,2.4c5.4,5.4,10.9,10.8,16.3,16.3C494.6-618.8,496.7-613.4,496.8-606.6z"/>
		<path fill="#222" d="M437.2-614.8c9.9,0,19.9,0,29.8,0c5.5,0,9.2,5.6,6.9,10.5c-1.3,2.7-3.6,4.3-6.7,4.3c-19.9,0-39.9,0-59.8,0
			c-3.2,0-5.5-1.5-6.8-4.4c-1.3-2.8-0.8-5.5,1.2-7.9c1.5-1.8,3.5-2.6,5.9-2.6C417.5-614.8,427.4-614.8,437.2-614.8z"/>
		<path fill="#222" d="M508.7-515.5c0.2,0,0.4,0,0.6,0.1c0,0,0,0.1,0,0.1c-0.2,0-0.4,0-0.6,0C508.7-515.4,508.7-515.4,508.7-515.5z"/>
		<path fill="#222" d="M515.8-515.5c0.2,0,0.4,0,0.6,0c0,0.1,0,0.1,0,0.2c-0.2,0-0.4,0-0.6,0C515.8-515.3,515.8-515.4,515.8-515.5z"/>
	</g>
</g>
<g>
	<path fill="#222" d="M-56.8,15.7c0-3.9,0-7.7,0-11.6c0-1.3,0.5-2.4,1.7-3.1c0.5-0.3,1.1-0.5,1.8-0.5c4.6,0,9.2,0,13.9,0c1.6,0,3,0.5,4.2,1.6
		c1.3,1.2,1.9,2.6,1.9,4.3c0,0.4-0.3,0.8-0.7,0.8c-1.1,0-2.3,0.1-3.4,0C-38.9,7-40,5.7-40.1,4.1c0-0.6,0-1.2,0-1.8
		c0-0.2,0-0.2-0.2-0.2c-4.3,0-8.7,0-13,0c-1.1,0-1.9,0.7-1.9,1.9c0,0.1,0,0.1,0,0.2c0,7.7,0,15.3,0,23c0,0.6,0.2,1.2,0.6,1.7
		c0.3,0.3,0.6,0.4,1,0.4c3.8,0,7.7,0,11.5,0c0.2,0,0.4,0,0.5,0c0.3,0.1,0.5,0.4,0.5,0.8c0,0.3-0.2,0.6-0.6,0.7c-0.1,0-0.3,0-0.4,0
		c-3.8,0-7.6,0-11.3,0c-1.4,0-2.6-0.8-3-2.1c-0.2-0.5-0.2-0.9-0.2-1.4C-56.8,23.4-56.8,19.5-56.8,15.7z M-38.5,2.3
		c0,0.6,0,1.2,0,1.8c0,1,0.8,1.8,1.9,1.7c0.5,0,1,0,1.4,0c0.2,0,0.2-0.1,0.2-0.2C-35.3,4-36.9,2.4-38.5,2.3z"/>
	<path fill="#222" d="M-39.3,25.6c-0.1-2.7,2.3-5.2,5.2-5.2c2.9,0,5.2,2.4,5.2,5.2c0,2.9-2.4,5.2-5.2,5.2C-37,30.8-39.4,28.3-39.3,25.6z
		 M-34.9,26C-34.9,26-35,26-34.9,26c-0.3-0.2-0.5-0.5-0.8-0.7c-0.2-0.2-0.5-0.3-0.8-0.2c-0.6,0.3-0.7,0.9-0.3,1.3
		c0.7,0.7,1.3,1.3,2,2c0.4,0.4,0.8,0.4,1.2,0c0.6-0.7,1.3-1.3,2-2c0.3-0.3,0.3-0.7,0.1-1c-0.3-0.4-0.7-0.4-1.1-0.1
		c-0.1,0.1-0.2,0.2-0.4,0.3c-0.1,0.1-0.3,0.3-0.5,0.4c0-1,0-2,0-3c0-0.5-0.3-0.8-0.8-0.8c-0.5,0-0.8,0.4-0.8,0.9
		C-34.9,24.1-34.9,25-34.9,26z"/>
	<path fill="#222" d="M-33.3,13.3c0,1.1,0,2.1,0,3.2c0,0.3-0.1,0.6-0.4,0.7c-0.3,0.1-0.6,0.1-0.8,0c-0.3-0.2-0.3-0.4-0.3-0.7c0-1.7,0-3.3,0-5
		c0-0.5,0-0.9,0-1.4c0-0.5,0.3-0.8,0.8-0.8c0.5,0,0.8,0.3,0.8,0.8C-33.3,11.1-33.3,12.2-33.3,13.3z"/>
</g>
<g>
	<path fill="#222" d="M201.7-394.2c0-23.4,0-46.8,0-70.1c0-8,3.3-14.3,10.2-18.5c3.3-2,6.9-2.8,10.8-2.8c28,0,56,0,84,0c9.7,0,18.2,3,25.3,9.5
		c7.7,7,11.6,15.9,11.8,26.3c0.1,2.4-1.7,4.9-3.9,5c-6.8,0.2-13.7,0.8-20.4-0.3c-9.5-1.5-16.2-9.3-16.7-19
		c-0.2-3.6-0.1-7.2-0.1-10.8c0-1-0.2-1.3-1.2-1.3c-26.3,0-52.6,0-78.8,0c-6.9,0-11.2,4.5-11.4,11.5c0,0.3,0,0.6,0,1
		c0,46.4,0,92.8,0,139.1c0,3.8,0.9,7.3,3.8,10.1c1.6,1.6,3.4,2.4,5.8,2.4c23.2,0,46.3,0,69.5,0c1.1,0,2.2-0.1,3.2,0.3
		c2.1,0.8,3.1,2.6,2.9,5c-0.2,2.1-1.5,3.6-3.6,3.9c-0.8,0.1-1.6,0.2-2.4,0.2c-22.9,0-45.8,0-68.7,0c-8.6,0-15.5-4.9-18.4-13
		c-1-2.8-1.4-5.7-1.4-8.7C201.7-347.7,201.7-370.9,201.7-394.2z M312.1-475.7c0,3.7-0.1,7.4,0,11.1c0.1,5.8,5.1,10.6,11.6,10.4
		c2.9-0.1,5.8-0.1,8.7,0c1.1,0,1.2-0.4,1-1.3C331.7-465.2,321.9-474.5,312.1-475.7z"/>
	<path fill="#222" d="M307.4-334.4c-0.4-16.6,13.8-31.6,31.5-31.5c17.6,0.1,31.5,14.5,31.4,31.6c-0.1,17.4-14.2,31.6-31.7,31.5
		C321-302.8,306.9-317.8,307.4-334.4z M333.9-332c-0.1,0.1-0.3,0.1-0.4,0.2c-1.4-1.5-2.8-3-4.3-4.4c-1.3-1.2-2.8-1.7-4.6-0.9
		c-3.5,1.5-4.2,5.3-1.5,8c4,4.1,8,8.1,12,12.1c2.3,2.3,5.1,2.4,7.3-0.1c3.9-4.2,8.1-8.1,12.1-12.3c1.9-1.9,2.1-4.3,0.5-6.2
		c-1.9-2.3-4.1-2.6-6.5-0.8c-0.8,0.6-1.5,1.4-2.3,2c-0.9,0.8-1.5,1.8-2.8,2.4c0-6.1,0-12,0-17.9c0-3.1-1.9-5-4.9-4.9
		c-2.8,0-4.7,2.1-4.7,5.2C333.9-343.6,333.9-337.8,333.9-332z"/>
	<path fill="#222" d="M343.6-409c0,6.5,0,13,0,19.5c0,1.9-0.8,3.3-2.5,4.2c-1.7,0.8-3.3,0.8-4.9-0.3c-1.6-1-2.1-2.6-2-4.5c0-10,0-20.1,0-30.1
		c0-2.8,0-5.6,0-8.4c0-3.1,1.8-5,4.6-5.1c2.7,0,4.7,2,4.8,5C343.6-422.1,343.6-415.6,343.6-409z"/>
</g>
<g>
	<path class="st0" d="M500.2-433.4v-45.5h-59.2c-7.5,0-13.7,6.1-13.7,13.7v141.1c0,7.5,6.1,13.7,13.7,13.7h104.7
		c7.5,0,13.7-6.1,13.7-13.7v-95.6h-45.5C506.3-419.8,500.2-425.9,500.2-433.4z"/>
	<line class="st0" x1="559.4" y1="-419.8" x2="500.2" y2="-478.9"/>
</g>
<g>
	<path fill="#222" class="st1" d="M76.6,9.7V1.9H66.5c-1.3,0-2.3,1-2.3,2.3v24.1c0,1.3,1,2.3,2.3,2.3h17.9c1.3,0,2.3-1,2.3-2.3V12.1h-7.8
		C77.6,12.1,76.6,11,76.6,9.7z"/>
	<line class="st1" x1="86.7" y1="12.1" x2="76.6" y2="1.9"/>
</g>
<g>
	<path fill="#222" d="M103.6-421.9c-10.6,0-20.3,0-30,0c-11.9,0-17.3-5.5-17.4-17.6c0-9.4-0.1-18.7-0.1-28.1c0-0.3-0.3-0.6-0.7-1.3
		c-19.2,0-38.7-0.1-58.1,0.2c-1.2,0-2.6,2.2-3.6,3.6c-0.4,0.6-0.1,1.8-0.1,2.7c0,41.9,0.1,83.7-0.1,125.6c0,4.9,1.5,6.3,6.3,6.2
		c11.2-0.3,22.4-0.1,33.9-0.1c0,4.1,0,7.9,0,12.5c-5.3,0-10.7,0-16.1,0c-7.2,0-14.3,0.1-21.5,0c-9-0.1-15.1-5.8-15.1-14.7
		c-0.1-44.6-0.1-89.3,0-133.9c0-9.2,5.6-14.7,14.9-14.7c21.9-0.2,43.7-0.2,65.6,0.1c2.4,0,5.3,1.5,7.1,3.3
		c14.8,14.5,29.5,29.2,44.1,44c1.3,1.4,3,3.3,3,5C116-412.7,116-396,116-379c-4,0-7.9,0-12.3,0C103.6-393.2,103.6-407.1,103.6-421.9
		z M92.4-434.5c-7.7-7.9-15.2-15.6-23.2-23.7c0,6.9-0.2,13.6,0.1,20.3c0.1,1.2,1.9,3.2,3.1,3.3C79.2-434.3,85.9-434.5,92.4-434.5z"
		/>
	<path fill="#222" d="M75.2-337.1c0-1.9,0-3.8,0-5.8c0.1-12.8,0.3-25.6,0.4-38.4c0-4.2,2.5-5.9,6.4-5.8c4.2,0.1,5.9,2.8,5.9,6.5
		c0.2,10.8,0.1,21.6,0.2,32.5c0,3.7,0,7.3,0,11.9c1.6-1.3,2.7-2.1,3.6-3c4.6-4.5,9-9.2,13.8-13.5c2.8-2.6,6.1-2.7,8.9,0.2
		c2.7,2.8,2.6,6.1-0.1,8.8c-9.2,9.4-18.6,18.8-28,28.1c-2.9,2.9-6.3,2.9-9.3,0c-9.3-9.2-18.5-18.4-27.7-27.6c-3-3-3.1-6.4-0.4-9.3
		c2.8-3,6.4-2.7,9.2,0.2c5.2,5.3,10.1,10.9,15.2,16.4C73.9-336.3,74.5-336.7,75.2-337.1z"/>
</g>
<g>
	<path fill="#222" d="M26.3,11.9c-1.9,0-3.7,0-5.4,0c-2.2,0-3.1-1-3.2-3.2c0-1.7,0-3.4,0-5.1c0-0.1-0.1-0.1-0.1-0.2c-3.5,0-7,0-10.5,0
		C6.8,3.4,6.6,3.8,6.4,4c-0.1,0.1,0,0.3,0,0.5c0,7.6,0,15.2,0,22.8c0,0.9,0.3,1.2,1.1,1.1c2-0.1,4.1,0,6.2,0c0,0.7,0,1.4,0,2.3
		c-1,0-1.9,0-2.9,0c-1.3,0-2.6,0-3.9,0c-1.6,0-2.7-1.1-2.7-2.7c0-8.1,0-16.2,0-24.3c0-1.7,1-2.7,2.7-2.7c4,0,7.9,0,11.9,0
		c0.4,0,1,0.3,1.3,0.6c2.7,2.6,5.3,5.3,8,8c0.2,0.2,0.5,0.6,0.5,0.9c0,3,0,6,0,9.1c-0.7,0-1.4,0-2.2,0
		C26.3,17.1,26.3,14.6,26.3,11.9z M24.3,9.6c-1.4-1.4-2.8-2.8-4.2-4.3c0,1.2,0,2.5,0,3.7c0,0.2,0.4,0.6,0.6,0.6
		C21.9,9.6,23.1,9.6,24.3,9.6z"/>
	<path fill="#222" d="M21.1,27.3c0-0.3,0-0.7,0-1c0-2.3,0-4.6,0.1-7c0-0.8,0.4-1.1,1.2-1.1c0.8,0,1.1,0.5,1.1,1.2c0,2,0,3.9,0,5.9
		c0,0.7,0,1.3,0,2.2c0.3-0.2,0.5-0.4,0.7-0.5c0.8-0.8,1.6-1.7,2.5-2.5c0.5-0.5,1.1-0.5,1.6,0c0.5,0.5,0.5,1.1,0,1.6
		c-1.7,1.7-3.4,3.4-5.1,5.1c-0.5,0.5-1.1,0.5-1.7,0c-1.7-1.7-3.4-3.3-5-5c-0.5-0.5-0.6-1.2-0.1-1.7c0.5-0.5,1.2-0.5,1.7,0
		c0.9,1,1.8,2,2.8,3C20.9,27.4,21,27.3,21.1,27.3z"/>
</g>
</svg>
