<?xml version="1.0" encoding="utf-8"?>
<!-- Generator: Adobe Illustrator 22.0.0, SVG Export Plug-In . SVG Version: 6.00 Build 0)  -->
<svg version="1.1" id="Layer_1" xmlns="http://www.w3.org/2000/svg" xmlns:xlink="http://www.w3.org/1999/xlink" x="0px" y="0px"
	 viewBox="0 0 32 32" style="enable-background:new 0 0 32 32;" xml:space="preserve">
<style type="text/css">
	.st0{fill:none;stroke:#010101;stroke-width:9;stroke-linejoin:round;stroke-miterlimit:10;}
	.st1{fill:none;stroke:#000000;stroke-width:5;stroke-miterlimit:10;}
	.st2{fill:none;stroke:#010101;stroke-width:1.5023;stroke-linejoin:round;stroke-miterlimit:10;}
	.st3{fill:none;stroke:#000000;stroke-width:0.8346;stroke-miterlimit:10;}
</style>
<g>
	<g>
		<path fill="#93999f" d="M15.9,1.3c3.9,0,7.8,0,11.8,0c1.8,0,2.5,0.7,2.5,2.5c0,7.8,0,15.7,0,23.5c0,1.8-0.9,2.6-2.6,2.6c-7.8,0-15.6,0-23.4,0
			c-1.8,0-2.6-0.8-2.6-2.6c0-7.8,0-15.6,0-23.4c0-1.8,0.8-2.6,2.6-2.6C8,1.3,11.9,1.3,15.9,1.3z M28.4,24.6c0-0.4,0-0.6,0-0.7
			c0-6.7,0-13.3,0-20c0-0.9-0.4-1.1-1.2-1.1c-7.7,0-15.3,0-23,0C3.5,2.9,3.2,3.1,3.2,4c0,7.2,0,14.4,0,21.6c0,0.2,0,0.5,0.1,0.9
			c0.8-1.1,1.5-2,2.2-2.9c0.6-0.6,1.3-1.2,2-1.5c1.3-0.5,2.3,0.2,3.2,1.2c0.2-0.3,0.4-0.5,0.6-0.7c1.6-2.1,3.3-4.2,4.9-6.3
			c0.8-1,1.8-1.7,3.1-1.3c0.8,0.3,1.6,0.9,2.2,1.5C23.9,19.2,26,21.8,28.4,24.6z M11.9,24.8c0.8,1,1.5,2,2.3,2.9
			c0.2,0.2,0.5,0.4,0.8,0.4c4.2,0,8.5,0,12.7,0c0.3,0,0.7-0.1,0.7-0.3c0.1-0.2,0-0.6-0.2-0.8c-0.5-0.7-1.1-1.3-1.7-2
			c-2.2-2.6-4.3-5.2-6.5-7.7c-0.7-0.8-1.6-0.9-2.1-0.1C15.8,19.7,13.9,22.3,11.9,24.8z M4.3,28.1c2.7,0,5.3,0,7.9,0
			c-1-1.3-1.9-2.5-2.8-3.7c-0.6-0.8-1.5-0.9-2.1-0.2C6.3,25.4,5.3,26.7,4.3,28.1z"/>
		<path fill="#93999f" d="M6.7,14c0-1.7,1.5-3.2,3.2-3.2c1.7,0,3.2,1.5,3.3,3.3c0,1.7-1.5,3.2-3.3,3.2C8.2,17.3,6.7,15.8,6.7,14z M11.5,14.1
			c0-0.8-0.6-1.5-1.5-1.6c-0.8,0-1.6,0.7-1.6,1.5c0,0.8,0.7,1.6,1.5,1.6C10.7,15.6,11.5,14.9,11.5,14.1z"/>
	</g>
</g>
</svg>
