<?xml version="1.0" encoding="utf-8"?>
<!-- Generator: Adobe Illustrator 22.0.0, SVG Export Plug-In . SVG Version: 6.00 Build 0)  -->
<svg version="1.1" id="Layer_1" xmlns="http://www.w3.org/2000/svg" xmlns:xlink="http://www.w3.org/1999/xlink" x="0px" y="0px"
	 viewBox="0 0 32 32" style="enable-background:new 0 0 32 32;" xml:space="preserve">
<style type="text/css">
	.st0{fill:none;stroke:#010101;stroke-width:9;stroke-linejoin:round;stroke-miterlimit:10;}
	.st1{fill:none;stroke:#000000;stroke-width:5;stroke-miterlimit:10;}
	.st2{fill:none;stroke:#010101;stroke-width:1.5023;stroke-linejoin:round;stroke-miterlimit:10;}
	.st3{fill:none;stroke:#000000;stroke-width:0.8346;stroke-miterlimit:10;}
</style>
<g>
	<g>
		<path fill="#0073ab" d="M27,26.7c0,0.5,0,0.9,0,1.3c0,1.3-0.7,2.1-2.1,2.1c-1.7,0-3.4,0-5,0c-5.4,0-10.8,0-16.1,0c-1.6,0-2.3-0.7-2.3-2.3
			c0-2.5,0-5,0-7.5c0-4.5,0-9,0-13.5c0-1.5,0.7-2.2,2.2-2.2c0.4,0,0.8,0,1.4,0c0-0.5,0-0.9,0-1.4c0-1.2,0.8-2,2-2
			c7.2,0,14.4,0,21.6,0c1.2,0,2,0.8,2,2c0,5.9,0,11.9,0,17.8c0,1.2,0,2.5,0,3.7c0,1.1-0.8,1.9-1.9,2C28.2,26.7,27.7,26.7,27,26.7z
			 M6.6,14C6.6,14,6.6,14,6.6,14c0,3.5,0,7.1,0,10.6c0,0.6,0.2,0.6,0.7,0.6c3.8,0,7.6,0,11.5,0c3.2,0,6.5,0,9.7,0
			c0.5,0,0.7-0.1,0.7-0.7c0-1.3,0-2.5,0-3.8c0-5.8,0-11.6,0-17.3c0-0.8,0-0.8-0.8-0.8c-7,0-14,0-21,0c-0.7,0-0.7,0-0.7,0.7
			C6.6,6.9,6.6,10.5,6.6,14z M25.5,26.7c-0.2,0-0.4,0-0.6,0c-3.2,0-6.4,0-9.6,0c-2.7,0-5.5,0-8.2,0c-1.2,0-2-0.7-2-1.9
			c0-1.3,0-2.6,0-3.9c0-4.7,0-9.4,0-14.1c0-0.2,0-0.4,0-0.7C4.6,6,4.2,6,3.8,6C3,6,3,6.1,3,6.8c0,7,0,13.9,0,20.9
			c0,0.9,0,0.9,0.8,0.9c6.7,0,13.4,0,20.1,0c1.8,0,1.6,0.4,1.5-1.7C25.5,26.9,25.5,26.8,25.5,26.7z"/>
		<path fill="#0073ab" d="M21.1,23.4c-1.9,0-3.8,0-5.6,0c-1.8,0-3.5,0-5.3,0c-1.5,0-2.4-1.2-1.8-2.5c1.6-3.7,3.2-7.3,4.8-11
			c0.3-0.6,0.8-1.1,1.5-1.1c0.8,0,1.2,0.4,1.5,1.1c0.8,1.6,1.6,3.3,2.5,4.9c0.1,0.3,0.3,0.5,0.4,0.8c0.4,0.6,0.7,0.7,1.3,0.3
			c1.1-0.7,2.5-0.6,3.3,0.5c1.2,1.6,2.2,3.3,3.3,4.9c0.5,0.8,0,2.2-1.3,2.2C24.2,23.4,22.7,23.4,21.1,23.4
			C21.1,23.4,21.1,23.4,21.1,23.4z M14.8,10.2c-0.2,0.3-0.3,0.5-0.4,0.8c-1.3,2.9-2.6,5.8-3.9,8.7c-0.2,0.5-0.5,1.1-0.7,1.7
			c-0.1,0.3,0,0.6,0.4,0.6c0.8,0,1.6,0,2.3,0c0.9,0,1.9-0.1,2.8-0.1c1.8,0,3.7,0,5.5,0c0.8,0,1.5,0,2.3,0c0.8,0,1.6-0.1,2.5-0.1
			c-1-1.6-2-3-3-4.5c-0.4-0.6-1-0.6-1.6-0.2c-0.9,0.6-1.8,0.6-2.7-0.1c-0.3-0.3-0.6-0.7-0.8-1.1c-0.8-1.6-1.6-3.3-2.5-4.9
			C15.1,10.8,15,10.5,14.8,10.2z"/>
		<path fill="#0073ab" d="M25.7,10c0,1.9-1.6,3.4-3.4,3.4c-1.9,0-3.4-1.6-3.4-3.5c0-1.9,1.6-3.4,3.5-3.4C24.2,6.5,25.7,8.1,25.7,10z M24.2,9.9
			c0-1.1-0.8-1.9-1.9-1.9c-1.1,0-2,0.9-2,1.9c0,1,0.9,1.9,1.9,1.9C23.4,11.9,24.2,11,24.2,9.9z"/>
	</g>
</g>
</svg>
