<?xml version="1.0" encoding="utf-8"?>
<!-- Generator: Adobe Illustrator 22.0.0, SVG Export Plug-In . SVG Version: 6.00 Build 0)  -->
<svg version="1.1" id="Layer_1" xmlns="http://www.w3.org/2000/svg" xmlns:xlink="http://www.w3.org/1999/xlink" x="0px" y="0px"
	 viewBox="0 0 32 32" style="enable-background:new 0 0 32 32;" xml:space="preserve">
<style type="text/css">
	.st0{fill:none;stroke:#010101;stroke-width:9;stroke-linejoin:round;stroke-miterlimit:10;}
	.st1{fill:none;stroke:#71D7F7;stroke-width:5;stroke-miterlimit:10;}
	.st2{fill:none;stroke:#010101;stroke-width:1.5023;stroke-linejoin:round;stroke-miterlimit:10;}
	.st3{fill:none;stroke:#71D7F7;stroke-width:0.8346;stroke-miterlimit:10;}
</style>
<g>
	<g>
		<g>
			<polyline class="st3" points="19.6,23.9 1.9,23.9 1.9,1.9 27.8,1.9 27.8,21.2 			"/>
			<line class="st3" x1="1.9" y1="5.8" x2="27.9" y2="5.8"/>
			<rect fill="#71D7F7" x="3.6" y="3.2" width="1.2" height="1.2"/>
			<rect fill="#71D7F7" x="7.4" y="3.2" width="1.2" height="1.2"/>
			<rect fill="#71D7F7" x="5.5" y="3.2" width="1.2" height="1.2"/>
		</g>
		<path fill="#71D7F7" d="M25.2,17.5c0,0.9-0.2,1.7-0.5,2.6c0,0.1,0,0.2,0,0.3c0.7,0.8,1.3,1.6,2,2.5c0.1,0.1,0.2,0.1,0.3,0.1c0.8,0,1.7,0,2.5,0.2
			c0.4,0.1,0.8,0.2,1.1,0.5c0.3,0.2,0.5,0.5,0.5,0.8c0,0.4-0.1,0.7-0.4,1c-0.3,0.2-0.6,0.3-1,0.3c-0.7,0-1.3-0.2-1.9-0.6
			c-0.5-0.3-0.9-0.8-1.4-1.2c0,0-0.1-0.1-0.2-0.1c-0.9,0.1-1.9,0.2-2.8,0.4c-0.3,0.1-0.5,0.1-0.8,0.2c-0.1,0-0.1,0.1-0.2,0.2
			c-0.5,0.8-0.9,1.6-1.5,2.3c-0.2,0.3-0.5,0.6-0.7,0.8c-0.3,0.3-0.7,0.4-1.1,0.4c-0.7,0-1.2-0.6-1.1-1.3c0.1-0.5,0.4-0.9,0.7-1.3
			c0.7-0.8,1.7-1.4,2.7-1.8c0.2-0.1,0.4-0.2,0.5-0.5c0.5-1,0.9-1.9,1.3-2.9c0-0.1,0-0.2,0-0.3c-0.4-0.7-0.7-1.5-0.8-2.4
			c-0.1-0.6,0-1.1,0.2-1.7c0.1-0.3,0.3-0.5,0.5-0.7c0.5-0.3,1.1-0.2,1.4,0.3c0.2,0.3,0.3,0.6,0.3,1C25.1,17,25.2,17.2,25.2,17.5z
			 M23.3,23.4c0.8-0.1,1.5-0.2,2.3-0.4c-0.4-0.6-0.9-1.1-1.3-1.7C23.9,22,23.6,22.7,23.3,23.4z M21.1,25.3
			C21.1,25.2,21.1,25.2,21.1,25.3C21.1,25.2,21,25.2,21.1,25.3c-0.7,0.3-1.2,0.7-1.6,1.2c-0.2,0.2-0.3,0.4-0.4,0.7
			c0,0.2,0,0.2,0.1,0.1c0.2-0.1,0.4-0.2,0.5-0.3c0.2-0.2,0.4-0.5,0.6-0.8C20.7,25.9,20.9,25.6,21.1,25.3z M23.9,19
			C23.9,19,24,19,23.9,19c0.2-0.4,0.3-0.9,0.2-1.4c0-0.4-0.1-0.8-0.1-1.1c0-0.1-0.1-0.2-0.1-0.3c-0.2,0.1-0.2,0.2-0.2,0.4
			c-0.2,0.5-0.1,1.1,0,1.6C23.8,18.5,23.9,18.8,23.9,19z M27.9,23.9C27.9,23.9,27.9,23.9,27.9,23.9c0.2,0.2,0.3,0.3,0.5,0.5
			c0.3,0.2,0.5,0.3,0.9,0.4c0.3,0.1,0.5,0.1,0.8-0.1c0.1-0.1,0.1-0.1,0-0.2c-0.1-0.1-0.2-0.2-0.4-0.2c-0.3-0.1-0.6-0.2-1-0.3
			C28.4,24,28.2,23.9,27.9,23.9z"/>
	</g>
	<g>
		<path fill="#71D7F7" d="M9.2,14.3c0.4,0.3,0.8,0.5,1.2,0.8c0.7,0.5,1.5,0.9,2.2,1.4c0.2,0.1,0.2,0.2,0.2,0.4c0,0.4,0,0.7,0,1.2
			c-0.1-0.1-0.2-0.1-0.2-0.1c-1.5-1-3.1-2-4.7-3c-0.1-0.1-0.2-0.2-0.2-0.4c-0.1-0.6,0.1-0.9,0.6-1.2c1.4-0.8,2.8-1.7,4.2-2.6
			c0.1,0,0.1-0.1,0.3-0.1c0,0.3,0,0.6,0,0.8c0.1,0.4-0.1,0.7-0.5,0.9c-1,0.6-1.9,1.2-2.9,1.8C9.3,14.2,9.3,14.2,9.2,14.3z"/>
		<path fill="#71D7F7" d="M16.4,18c0-0.5,0-0.9,0-1.3c0-0.1,0.1-0.2,0.2-0.2c1-0.7,2.1-1.3,3.1-2c0.1,0,0.1-0.1,0.3-0.2c-0.1-0.1-0.2-0.1-0.2-0.2
			c-1-0.7-2.1-1.3-3.1-2c-0.2-0.1-0.2-0.2-0.2-0.4c0-0.4,0-0.7,0-1.2c0.1,0.1,0.2,0.1,0.2,0.1c1.5,1,3.1,1.9,4.6,2.9
			c0.2,0.1,0.2,0.2,0.2,0.4c0.1,0.5-0.1,0.8-0.6,1.1c-1.4,0.8-2.8,1.7-4.2,2.6C16.6,17.8,16.5,17.9,16.4,18z"/>
	</g>
</g>
</svg>
